<svg width="44.568" height="21.36" viewBox="0 0 44.568 21.36" xmlns="http://www.w3.org/2000/svg"><g id="svgGroup" stroke-linecap="round" fill-rule="evenodd" font-size="9pt" stroke="#000" stroke-width="0.25mm" fill="black" style="stroke:#000;stroke-width:0.25mm;fill:black"><path d="M 10.992 15.168 L 12.024 6.096 Q 9.912 6.12 7.476 6.144 A 87.002 87.002 0 0 0 4.246 6.234 A 74.021 74.021 0 0 0 2.856 6.312 L 2.832 5.112 Q 3.756 5.063 4.89 5.036 A 105.238 105.238 0 0 1 5.964 5.016 Q 7.752 4.992 9.672 4.968 Q 11.592 4.944 13.344 4.92 L 12.024 16.32 L 8.544 16.32 A 469.369 469.369 0 0 1 5.99 16.313 A 417.049 417.049 0 0 1 5.172 16.308 Q 3.552 16.296 2.22 16.284 A 195.097 195.097 0 0 1 1.582 16.277 Q 0.696 16.266 0.043 16.249 A 66.102 66.102 0 0 1 0 16.248 L 0 15.048 Q 0.68 15.085 1.845 15.107 A 138.931 138.931 0 0 0 2.604 15.12 A 375.864 375.864 0 0 0 4.197 15.139 Q 5.01 15.147 5.908 15.152 A 629.848 629.848 0 0 0 6.516 15.156 Q 8.712 15.168 10.992 15.168 Z M 20.16 15.048 L 20.16 16.248 Q 19.682 16.248 18.944 16.255 A 279.949 279.949 0 0 0 18.468 16.26 Q 17.4 16.272 16.164 16.272 Q 14.928 16.272 13.776 16.296 L 15.072 3.696 A 256.048 256.048 0 0 0 14.021 3.698 Q 13.483 3.701 12.885 3.705 A 441.797 441.797 0 0 0 12.48 3.708 Q 11.016 3.72 9.432 3.732 A 410.608 410.608 0 0 1 6.734 3.744 A 373.304 373.304 0 0 1 6.36 3.744 L 4.44 3.744 Q 3.528 3.744 2.784 3.72 L 2.76 2.52 Q 3.627 2.543 4.937 2.566 A 456.764 456.764 0 0 0 5.076 2.568 Q 6.48 2.592 8.088 2.592 Q 9.552 2.592 11.04 2.58 Q 12.528 2.568 13.908 2.556 Q 15.288 2.544 16.368 2.544 L 15.048 15.144 Q 16.632 15.12 17.964 15.096 Q 19.23 15.073 20.073 15.05 A 119.643 119.643 0 0 0 20.16 15.048 Z M 20.16 17.664 L 20.16 18.84 A 89.367 89.367 0 0 0 19.629 18.829 Q 18.894 18.815 17.9 18.807 A 291.607 291.607 0 0 0 17.568 18.804 Q 15.96 18.792 14.004 18.78 Q 12.048 18.768 10.008 18.768 Q 7.968 18.768 6.024 18.78 Q 4.08 18.792 2.508 18.804 A 250.853 250.853 0 0 0 1.762 18.811 Q 0.702 18.822 0 18.84 L 0 17.664 A 135.705 135.705 0 0 1 0.899 17.648 Q 1.303 17.642 1.756 17.637 A 282.047 282.047 0 0 1 2.712 17.628 Q 4.32 17.616 6.216 17.616 L 10.08 17.616 L 13.944 17.616 Q 15.84 17.616 17.448 17.628 A 273.351 273.351 0 0 1 18.583 17.639 Q 19.027 17.644 19.421 17.65 A 130.484 130.484 0 0 1 20.16 17.664 Z" id="0" vector-effect="non-scaling-stroke"/><path d="M 23.568 12.528 L 23.472 11.376 Q 24.192 11.328 25.512 11.256 Q 26.646 11.194 28.073 11.106 A 508.971 508.971 0 0 0 28.548 11.076 Q 30.264 10.968 32.16 10.848 Q 32.064 10.104 31.968 9.384 L 31.776 7.944 Q 29.784 8.088 28.032 8.208 Q 26.28 8.328 25.176 8.424 L 25.032 7.224 A 194.254 194.254 0 0 0 25.469 7.198 Q 26.071 7.161 26.866 7.109 A 582.063 582.063 0 0 0 27.132 7.092 Q 28.416 7.008 29.904 6.9 Q 31.392 6.792 32.808 6.696 A 230.072 230.072 0 0 0 32.895 7.431 Q 32.929 7.721 32.962 7.985 A 124.961 124.961 0 0 0 33.024 8.484 Q 33.12 9.24 33.216 10.02 A 191.782 191.782 0 0 0 33.295 10.651 Q 33.33 10.932 33.371 11.246 A 377.979 377.979 0 0 0 33.456 11.904 Q 31.44 12.048 29.52 12.168 Q 27.6 12.288 26.052 12.372 A 194.907 194.907 0 0 0 25.316 12.413 Q 24.27 12.474 23.568 12.528 Z M 44.232 9.96 L 44.328 11.112 A 276.872 276.872 0 0 0 43.843 11.152 Q 43.302 11.197 42.588 11.257 A 949.079 949.079 0 0 0 41.904 11.316 Q 40.368 11.448 38.556 11.58 Q 36.744 11.712 34.944 11.832 A 93.771 93.771 0 0 0 34.856 11.081 Q 34.82 10.784 34.785 10.516 A 50.417 50.417 0 0 0 34.716 10.008 Q 34.608 9.24 34.512 8.46 A 191.709 191.709 0 0 0 34.433 7.829 Q 34.398 7.548 34.357 7.234 A 377.979 377.979 0 0 0 34.272 6.576 Q 35.904 6.48 37.416 6.384 Q 38.928 6.288 40.164 6.204 A 1029.243 1029.243 0 0 1 40.751 6.164 Q 41.586 6.108 42.144 6.072 L 42.312 7.296 Q 41.324 7.317 39.79 7.416 A 120.892 120.892 0 0 0 39.42 7.44 Q 37.632 7.56 35.568 7.68 Q 35.664 8.376 35.76 9.108 Q 35.856 9.84 35.952 10.608 Q 37.728 10.488 39.336 10.368 Q 40.944 10.248 42.228 10.14 A 245.83 245.83 0 0 0 42.835 10.088 Q 43.692 10.014 44.232 9.96 Z M 34.704 21.288 L 33.504 21.36 Q 33.336 19.824 33.108 18.06 Q 32.88 16.296 32.64 14.448 Q 30.768 14.568 29.028 14.688 Q 27.288 14.808 25.932 14.928 Q 24.576 15.048 23.808 15.144 L 23.688 13.92 Q 24.568 13.834 25.957 13.729 A 215.247 215.247 0 0 1 26.292 13.704 Q 27.912 13.584 29.844 13.464 Q 31.776 13.344 33.672 13.224 L 34.704 21.288 Z M 37.464 21.024 L 36.312 21.12 Q 36.213 20.493 36.091 19.667 A 250.797 250.797 0 0 1 35.976 18.876 Q 35.784 17.544 35.568 16.044 Q 35.352 14.544 35.136 13.104 Q 36.96 12.984 38.772 12.864 Q 40.584 12.744 42.084 12.648 Q 43.584 12.552 44.448 12.504 L 44.568 13.728 Q 44.017 13.746 43.156 13.793 A 153.081 153.081 0 0 0 42.6 13.824 A 557.934 557.934 0 0 1 41.359 13.894 Q 40.708 13.93 39.987 13.969 A 910.629 910.629 0 0 1 39.78 13.98 Q 38.208 14.064 36.456 14.184 Q 36.72 15.96 36.972 17.712 Q 37.224 19.464 37.464 21.024 Z M 41.832 3.552 L 41.976 4.68 Q 41.184 4.728 39.876 4.836 Q 38.568 4.944 37.044 5.04 Q 35.52 5.136 34.056 5.232 A 193.998 193.998 0 0 0 33.797 2.953 A 174.568 174.568 0 0 0 33.708 2.22 Q 33.535 0.822 33.439 0.147 A 36.168 36.168 0 0 0 33.432 0.096 L 34.632 0 A 68.842 68.842 0 0 0 34.693 0.598 Q 34.721 0.865 34.754 1.159 A 130.841 130.841 0 0 0 34.824 1.776 Q 34.944 2.808 35.088 4.032 Q 37.104 3.912 38.904 3.78 A 426.124 426.124 0 0 0 39.762 3.716 Q 40.814 3.637 41.587 3.573 A 133.115 133.115 0 0 0 41.832 3.552 Z M 30.72 0.336 L 31.896 0.24 L 32.592 5.352 Q 31.032 5.448 29.544 5.544 Q 28.056 5.64 26.832 5.7 Q 25.737 5.754 25.026 5.798 A 64.939 64.939 0 0 0 24.864 5.808 L 24.72 4.656 L 31.272 4.296 L 30.72 0.336 Z" id="1" vector-effect="non-scaling-stroke"/></g></svg>